<?xml version="1.0" standalone="no"?>
<!DOCTYPE svg PUBLIC "-//W3C//DTD SVG 20010904//EN"
 "http://www.w3.org/TR/2001/REC-SVG-20010904/DTD/svg10.dtd">
<svg version="1.0" xmlns="http://www.w3.org/2000/svg"
 width="70.000000pt" height="70.000000pt" viewBox="0 0 70.000000 70.000000"
 preserveAspectRatio="xMidYMid meet">
<metadata>
Created by potrace 1.14, written by Peter Selinger 2001-2017
</metadata>
<g transform="translate(0.000000,70.000000) scale(0.100000,-0.100000)"
fill="#000000" stroke="none">
<path d="M110 635 c0 -24 -5 -35 -15 -35 -8 0 -15 -4 -15 -10 0 -5 -7 -10 -15
-10 -13 0 -15 -34 -15 -245 l0 -245 30 0 c17 0 30 -4 30 -10 0 -5 20 -10 45
-10 33 0 45 -4 45 -15 0 -9 9 -15 25 -15 14 0 25 -4 25 -10 0 -6 45 -10 115
-10 70 0 115 4 115 10 0 6 20 10 45 10 33 0 45 4 45 15 0 9 9 15 25 15 14 0
25 5 25 10 0 6 7 10 15 10 13 0 15 34 15 245 0 211 -2 245 -15 245 -13 0 -15
-34 -15 -245 l0 -245 -25 0 c-14 0 -25 -4 -25 -10 0 -5 -20 -10 -45 -10 -33 0
-45 -4 -45 -15 0 -12 -19 -15 -115 -15 -96 0 -115 3 -115 15 0 9 -9 15 -25 15
-14 0 -25 5 -25 10 0 6 -19 10 -42 10 l-43 0 0 245 c0 232 1 245 19 245 14 0
17 -5 11 -22 -15 -49 -17 -69 -11 -93 l6 -25 219 0 c239 0 231 -2 231 60 0 16
4 30 9 32 17 6 18 138 1 138 -5 0 -10 -16 -10 -35 0 -24 -5 -35 -15 -35 -10 0
-15 11 -15 35 0 19 -4 35 -10 35 -5 0 -10 -16 -10 -35 0 -31 -3 -35 -25 -35
-22 0 -25 4 -25 35 0 19 -4 35 -10 35 -5 0 -10 -16 -10 -35 0 -24 -5 -35 -15
-35 -10 0 -15 11 -15 35 0 19 -4 35 -10 35 -5 0 -10 -16 -10 -35 0 -35 0 -35
-45 -35 -45 0 -45 0 -45 35 0 19 -4 35 -10 35 -5 0 -10 -16 -10 -35 0 -28 -4
-35 -20 -35 -16 0 -20 7 -20 35 0 19 -4 35 -10 35 -5 0 -10 -16 -10 -35 0 -32
-2 -35 -30 -35 -28 0 -30 3 -30 35 0 24 -5 35 -15 35 -10 0 -15 -11 -15 -35 0
-24 -5 -35 -15 -35 -10 0 -15 11 -15 35 0 19 -4 35 -10 35 -5 0 -10 -16 -10
-35z m190 -70 c0 -12 -13 -15 -55 -15 -42 0 -55 3 -55 15 0 12 13 15 55 15 42
0 55 -3 55 -15z m160 0 c0 -12 -14 -15 -65 -15 -51 0 -65 3 -65 15 0 12 14 15
65 15 51 0 65 -3 65 -15z m120 0 c0 -11 -12 -15 -45 -15 -33 0 -45 4 -45 15 0
11 12 15 45 15 33 0 45 -4 45 -15z"/>
<path d="M144 396 c-3 -13 -4 -35 -2 -47 3 -22 8 -24 71 -27 42 -2 67 1 67 8
0 5 7 10 15 10 9 0 15 9 15 24 0 51 -7 56 -86 56 -69 0 -74 -1 -80 -24z"/>
<path d="M344 396 c-3 -13 -4 -35 -2 -47 3 -23 7 -24 78 -24 84 0 93 9 68 65
-12 29 -16 30 -75 30 -58 0 -63 -2 -69 -24z"/>
<path d="M545 387 c-3 -7 -5 -49 -3 -93 3 -71 5 -79 23 -79 19 0 20 7 20 90 0
78 -2 90 -18 93 -9 2 -19 -3 -22 -11z"/>
<path d="M144 276 c-13 -55 -5 -61 81 -61 80 0 80 0 83 28 2 19 -1 27 -12 27
-9 0 -16 7 -16 15 0 12 -14 15 -65 15 -60 0 -65 -2 -71 -24z"/>
<path d="M344 273 c-12 -46 5 -58 82 -58 74 0 83 8 70 61 -6 23 -11 24 -76 24
-67 0 -70 -1 -76 -27z"/>
<path d="M224 158 c3 -13 6 -31 6 -40 0 -11 8 -18 20 -18 11 0 20 -7 20 -15 0
-12 17 -15 95 -15 78 0 95 3 95 15 0 8 9 15 20 15 12 0 20 7 20 18 0 9 3 27 6
40 l6 22 -147 0 -147 0 6 -22z"/>
</g>
</svg>
